<?xml version="1.0" encoding="UTF-8"?>
<svg xmlns="http://www.w3.org/2000/svg" xmlns:xlink="http://www.w3.org/1999/xlink" viewBox="0 0 26 26" version="1.1" fill="#00fbb9"><g id="surface1" fill="#00fbb9"><path style=" " d="M 0.8125 2 C 0.335938 2.089844 -0.0078125 2.511719 0 3 L 0 23 C 0 23.550781 0.449219 24 1 24 L 25 24 C 25.550781 24 26 23.550781 26 23 L 26 3 C 26 2.449219 25.550781 2 25 2 L 1 2 C 0.96875 2 0.9375 2 0.90625 2 C 0.875 2 0.84375 2 0.8125 2 Z M 2 4 L 24 4 L 24 22 L 2 22 Z M 20.96875 6.0625 C 20.914063 6.070313 20.863281 6.078125 20.8125 6.09375 C 20.554688 6.152344 20.328125 6.308594 20.1875 6.53125 L 19.375 7.6875 L 18.90625 7.3125 C 18.464844 6.976563 17.835938 7.058594 17.5 7.5 C 17.164063 7.941406 17.246094 8.570313 17.6875 8.90625 L 19 9.90625 C 19.214844 10.066406 19.484375 10.132813 19.75 10.089844 C 20.011719 10.050781 20.25 9.90625 20.40625 9.6875 L 21.8125 7.6875 C 22.0625 7.378906 22.105469 6.953125 21.921875 6.601563 C 21.738281 6.246094 21.363281 6.035156 20.96875 6.0625 Z M 5 7 L 5 9 L 15 9 L 15 7 Z M 20.96875 11.0625 C 20.914063 11.070313 20.863281 11.078125 20.8125 11.09375 C 20.554688 11.152344 20.328125 11.308594 20.1875 11.53125 L 19.375 12.6875 L 18.90625 12.3125 C 18.464844 11.976563 17.835938 12.058594 17.5 12.5 C 17.164063 12.941406 17.246094 13.570313 17.6875 13.90625 L 19 14.90625 C 19.214844 15.066406 19.484375 15.132813 19.75 15.089844 C 20.011719 15.050781 20.25 14.90625 20.40625 14.6875 L 21.8125 12.6875 C 22.0625 12.378906 22.105469 11.953125 21.921875 11.601563 C 21.738281 11.246094 21.363281 11.035156 20.96875 11.0625 Z M 5 12 L 5 14 L 15 14 L 15 12 Z M 20.96875 16.0625 C 20.914063 16.070313 20.863281 16.078125 20.8125 16.09375 C 20.554688 16.152344 20.328125 16.308594 20.1875 16.53125 L 19.375 17.6875 L 18.90625 17.3125 C 18.464844 16.976563 17.835938 17.058594 17.5 17.5 C 17.164063 17.941406 17.246094 18.570313 17.6875 18.90625 L 19 19.90625 C 19.214844 20.066406 19.484375 20.132813 19.75 20.089844 C 20.011719 20.050781 20.25 19.90625 20.40625 19.6875 L 21.8125 17.6875 C 22.0625 17.378906 22.105469 16.953125 21.921875 16.601563 C 21.738281 16.246094 21.363281 16.035156 20.96875 16.0625 Z M 5 17 L 5 19 L 15 19 L 15 17 Z " fill="#00fbb9"/></g></svg>