<?xml version="1.0" encoding="utf-8"?>
<!-- Generator: Adobe Illustrator 22.1.0, SVG Export Plug-In . SVG Version: 6.00 Build 0)  -->
<svg version="1.1" id="Layer_1" xmlns="http://www.w3.org/2000/svg" xmlns:xlink="http://www.w3.org/1999/xlink" x="0px" y="0px"
	 viewBox="0 0 26 26" style="enable-background:new 0 0 26 26;" xml:space="preserve">
<style type="text/css">
	.st0{fill:#00BDF0;}
</style>
<g id="surface1">
	<path class="st0" d="M1,0C0.4,0,0,0.4,0,1v24c0,0.6,0.4,1,1,1h24c0.6,0,1-0.4,1-1V1c0-0.6-0.4-1-1-1H1z M2,2h22v22H2V2z M10.8,5
		c-0.4,0.1-0.7,0.3-0.8,0.7l-1.9,6.5L8,11.8c-0.1-0.4-0.4-0.6-0.7-0.7c-0.3-0.1-0.7,0-1,0.3L4.6,13H4c-0.4,0-0.7,0.2-0.9,0.5
		c-0.2,0.3-0.2,0.7,0,1C3.3,14.8,3.6,15,4,15h1c0.3,0,0.5-0.1,0.7-0.3L6.5,14L7,16.2C7.1,16.7,7.5,17,8,17c0.5,0,0.9-0.3,1-0.7
		l1.4-4.7l0.6,9.4c0,0.5,0.4,0.8,0.9,0.9c0.5,0.1,0.9-0.2,1.1-0.7l2.2-6.7l0.9,1.8c0.2,0.4,0.5,0.6,0.9,0.6s0.7-0.2,0.9-0.6l0.7-1.4
		H22c0.4,0,0.7-0.2,0.9-0.5c0.2-0.3,0.2-0.7,0-1C22.7,13.2,22.4,13,22,13h-4c-0.4,0-0.7,0.2-0.9,0.6L17,13.8l-1.1-2.2
		c-0.2-0.4-0.6-0.6-1-0.6c-0.4,0-0.8,0.3-0.9,0.7l-1.4,4.2L12,5.9c0-0.3-0.1-0.5-0.3-0.7C11.4,5.1,11.2,5,10.8,5
		C10.9,5,10.8,5,10.8,5z"/>
</g>
</svg>
