<?xml version="1.0" encoding="utf-8"?>
<!-- Generator: Adobe Illustrator 22.1.0, SVG Export Plug-In . SVG Version: 6.00 Build 0)  -->
<svg version="1.1" id="Layer_1" xmlns="http://www.w3.org/2000/svg" xmlns:xlink="http://www.w3.org/1999/xlink" x="0px" y="0px"
	 viewBox="0 0 26 26" style="enable-background:new 0 0 26 26;" xml:space="preserve">
<style type="text/css">
	.st0{fill:#00BDF0;}
</style>
<g id="surface1">
	<path class="st0" d="M12.9,0c0,0-0.1,0-0.1,0C12.3,0.1,12,0.5,12,1v3c0,0.4,0.2,0.7,0.5,0.9c0.3,0.2,0.7,0.2,1,0
		C13.8,4.7,14,4.4,14,4V1c0-0.3-0.1-0.6-0.3-0.8C13.5,0,13.2-0.1,12.9,0z M4.3,3.5C3.9,3.6,3.6,3.8,3.5,4.2c-0.1,0.4,0,0.8,0.3,1
		l2.1,2.1c0.2,0.3,0.6,0.4,1,0.3c0.4-0.1,0.7-0.4,0.8-0.8c0.1-0.4-0.1-0.8-0.3-1L5.2,3.8C5,3.6,4.7,3.5,4.3,3.5
		C4.4,3.5,4.3,3.5,4.3,3.5z M21.4,3.5c-0.2,0-0.4,0.1-0.6,0.3l-2.1,2.1c-0.3,0.2-0.4,0.6-0.3,1c0.1,0.4,0.4,0.7,0.8,0.8
		c0.4,0.1,0.8-0.1,1-0.3l2.1-2.1c0.3-0.3,0.4-0.8,0.2-1.2C22.2,3.7,21.8,3.4,21.4,3.5z M13,7.1c-3.2,0-5.8,2.6-5.8,5.8
		c0,3.3,2.8,5.2,2.8,6.9v0.4c0,0.4,0.3,0.8,0.8,0.8h4.4c0.4,0,0.8-0.3,0.8-0.8v-0.4c0-1.7,2.8-3.6,2.8-6.9C18.8,9.7,16.2,7.1,13,7.1
		z M13,9.1c0.7,0,1.4,0.2,2,0.6c-0.1,0-0.1,0-0.2,0c-2.7,0-4.9,2.2-4.9,4.9c0,0.2,0,0.3,0,0.5c-0.4-0.6-0.7-1.4-0.7-2.2
		C9.2,10.7,10.9,9.1,13,9.1z M0.7,12c-0.6,0.1-0.9,0.6-0.9,1.1S0.4,14.1,1,14h3c0.4,0,0.7-0.2,0.9-0.5c0.2-0.3,0.2-0.7,0-1
		C4.7,12.2,4.4,12,4,12H1c0,0-0.1,0-0.1,0S0.8,12,0.7,12C0.8,12,0.8,12,0.7,12z M21.7,12c-0.6,0.1-0.9,0.6-0.9,1.1s0.6,0.9,1.1,0.9
		h3c0.4,0,0.7-0.2,0.9-0.5c0.2-0.3,0.2-0.7,0-1C25.7,12.2,25.4,12,25,12h-3c0,0-0.1,0-0.1,0S21.8,12,21.7,12
		C21.8,12,21.8,12,21.7,12z M6.5,18.3c-0.2,0-0.4,0.1-0.6,0.3l-2.1,2.1c-0.3,0.2-0.4,0.6-0.3,1c0.1,0.4,0.4,0.7,0.8,0.8
		c0.4,0.1,0.8-0.1,1-0.3l2.1-2.1c0.3-0.3,0.4-0.7,0.2-1.1C7.4,18.6,7,18.3,6.5,18.3C6.6,18.3,6.6,18.3,6.5,18.3z M19.2,18.3
		c-0.4,0.1-0.7,0.3-0.8,0.7c-0.1,0.4,0,0.8,0.3,1l2.1,2.1c0.2,0.3,0.6,0.4,1,0.3c0.4-0.1,0.7-0.4,0.8-0.8c0.1-0.4-0.1-0.8-0.3-1
		l-2.1-2.1c-0.2-0.2-0.4-0.3-0.7-0.3C19.3,18.3,19.3,18.3,19.2,18.3C19.2,18.3,19.2,18.3,19.2,18.3z M10.8,22
		c-0.4,0-0.8,0.3-0.8,0.8v1.5c0,0.4,0.3,0.8,0.8,0.8h0.6c0.3,0.6,0.9,1,1.6,1s1.3-0.4,1.6-1h0.6c0.4,0,0.8-0.3,0.8-0.8v-1.5
		c0-0.4-0.3-0.8-0.8-0.8H10.8z"/>
</g>
</svg>
