<?xml version="1.0" encoding="utf-8"?>
<!-- Generator: Adobe Illustrator 22.1.0, SVG Export Plug-In . SVG Version: 6.00 Build 0)  -->
<svg version="1.1" id="Layer_1" xmlns="http://www.w3.org/2000/svg" xmlns:xlink="http://www.w3.org/1999/xlink" x="0px" y="0px"
	 viewBox="0 0 26 26" style="enable-background:new 0 0 26 26;" xml:space="preserve">
<style type="text/css">
	.st0{fill:#004658;}
</style>
<g id="surface1">
	<path class="st0" d="M22.4,18c-1.5-1.3-3.1-2.1-4.6-0.8l-1,0.8c-0.7,0.6-1.9,3.3-6.7-2.2S8.2,9.4,8.8,8.9l1-0.9
		c1.5-1.3,0.9-3-0.2-4.7l-0.7-1C7.8,0.6,6.6-0.6,5.1,0.8L4.3,1.5C3.6,2,1.7,3.6,1.3,6.6C0.7,10.2,2.5,14.4,6.4,19
		c4,4.6,7.9,6.9,11.5,6.8c3.1,0,4.9-1.7,5.5-2.3l0.8-0.7c1.5-1.3,0.6-2.7-1-4L22.4,18z"/>
</g>
</svg>
