<svg xmlns="http://www.w3.org/2000/svg" xmlns:xlink="http://www.w3.org/1999/xlink" width="216" height="65" viewBox="0 0 216 65">
    <defs>
        <path id="a" d="M0 63.997V.005h215.97v63.992z"/>
    </defs>
    <g fill="none" fill-rule="evenodd">
        <path fill="#FFF" d="M214.538 56.523a6.13 6.13 0 0 1-6.13 6.129H7.57a6.138 6.138 0 0 1-6.145-6.129V7.647A6.146 6.146 0 0 1 7.57 1.511H208.4a6.136 6.136 0 0 1 6.137 6.135v.001l.001 48.876z"/>
        <g transform="translate(0 .081)">
            <mask id="b" fill="#fff">
                <use xlink:href="#a"/>
            </mask>
            <path fill="#FFF" d="M208.402 63.997H7.569A7.57 7.57 0 0 1 0 56.442V7.568A7.575 7.575 0 0 1 7.57.005H208.4a7.578 7.578 0 0 1 7.57 7.563v48.874c.003 4.167-3.399 7.555-7.568 7.555" mask="url(#b)"/>
        </g>
        <path fill="#000" d="M214.538 56.523a6.13 6.13 0 0 1-6.13 6.129H7.57a6.138 6.138 0 0 1-6.145-6.129V7.647A6.146 6.146 0 0 1 7.57 1.511H208.4a6.136 6.136 0 0 1 6.137 6.135v.001l.001 48.876z"/>
        <path fill="#FFF" d="M43.102 16.578c1.4-1.749 2.356-4.128 2.09-6.543-2.024.09-4.556 1.4-6.014 3.11-1.29 1.508-2.443 3.979-2.145 6.303 2.274.17 4.61-1.148 6.07-2.87m5.121 15.167c-.046-5.157 4.225-7.666 4.42-7.783-2.419-3.526-6.168-4.007-7.485-4.046-3.148-.33-6.202 1.884-7.806 1.884-1.636 0-4.106-1.852-6.768-1.797-3.425.053-6.63 2.035-8.387 5.114-3.627 6.278-.922 15.503 2.553 20.577 1.738 2.487 3.77 5.26 6.428 5.163 2.601-.106 3.573-1.656 6.712-1.656 3.11 0 4.022 1.656 6.734 1.593 2.791-.043 4.549-2.496 6.226-5.004 2.009-2.846 2.816-5.653 2.848-5.797-.064-.023-5.42-2.068-5.475-8.248M192.277 41.21c.024-1.012-.2-1.885-.663-2.622-.59-.95-1.5-1.424-2.718-1.424-1.116 0-2.025.462-2.716 1.39-.569.738-.906 1.624-1.01 2.653l7.107.004zm3.254.885a8.005 8.005 0 0 1-.125 1.548h-10.238c.039 1.517.535 2.679 1.485 3.479.863.714 1.979 1.072 3.35 1.072 1.515 0 2.898-.24 4.142-.725l.534 2.367c-1.453.633-3.17.949-5.15.949-2.38 0-4.25-.701-5.611-2.1-1.357-1.4-2.038-3.282-2.038-5.639 0-2.314.633-4.242 1.899-5.78 1.325-1.642 3.116-2.463 5.37-2.463 2.214 0 3.89.821 5.028 2.463.9 1.301 1.354 2.914 1.354 4.83zm-15.263-3.95a5.949 5.949 0 0 0-1.075-.095c-1.2 0-2.129.451-2.782 1.36-.567.8-.852 1.812-.852 3.033V50.5h-3.412V39.98c.003-1.612-.03-3.224-.1-4.834h2.973l.125 2.938h.094c.362-1.01.929-1.824 1.706-2.434a4.127 4.127 0 0 1 2.467-.823c.316 0 .6.023.853.063l.003 3.255zm-14.634 4.63c0-1.408-.304-2.614-.914-3.624-.716-1.22-1.74-1.829-3.067-1.829-1.367 0-2.415.61-3.13 1.829-.61 1.01-.915 2.237-.915 3.687 0 1.408.304 2.618.916 3.625.737 1.219 1.767 1.829 3.1 1.829 1.305 0 2.327-.623 3.067-1.86.627-1.034.943-2.248.943-3.658zm3.537-.08c0 2.36-.675 4.299-2.023 5.814-1.41 1.56-3.286 2.338-5.625 2.338-2.257 0-4.05-.747-5.39-2.24-1.337-1.496-2.006-3.381-2.006-5.655 0-2.38.691-4.329 2.07-5.844 1.38-1.517 3.24-2.276 5.58-2.276 2.253 0 4.063.749 5.433 2.244 1.31 1.45 1.961 3.322 1.961 5.62zm-16.938-4.99h-3.761v7.455c0 1.896.662 2.842 1.99 2.842.61 0 1.116-.051 1.517-.158l.094 2.59c-.672.251-1.557.378-2.654.378-1.348 0-2.4-.411-3.161-1.234-.757-.822-1.138-2.2-1.138-4.14v-7.74h-2.241v-2.56h2.24v-2.812l3.353-1.011v3.823h3.761v2.566zm-11.312 6.821c0 1.813-.634 3.287-1.893 4.425-1.386 1.242-3.322 1.864-5.803 1.864-2.292 0-4.13-.441-5.515-1.326l.789-2.844c1.496.887 3.14 1.328 4.93 1.328 1.287 0 2.287-.291 3-.869.716-.58 1.078-1.354 1.078-2.32 0-.866-.3-1.59-.887-2.181-.59-.59-1.567-1.138-2.938-1.642-3.73-1.39-5.596-3.425-5.596-6.1 0-1.748.66-3.178 1.975-4.297 1.316-1.117 3.06-1.675 5.23-1.675 1.94 0 3.554.337 4.836 1.011l-.856 2.781c-1.207-.653-2.57-.979-4.093-.979-1.204 0-2.148.296-2.823.885-.569.526-.857 1.168-.857 1.93 0 .84.328 1.538.981 2.085.567.504 1.601 1.053 3.096 1.642 1.834.74 3.182 1.6 4.045 2.589.87.989 1.301 2.223 1.301 3.693zm-23.23-1.768c0-1.495-.338-2.727-1.013-3.698-.738-1.01-1.726-1.516-2.968-1.516-.842 0-1.607.282-2.294.837-.685.56-1.131 1.292-1.34 2.197-.105.423-.16.767-.16 1.039v2.562c0 1.115.343 2.058 1.025 2.83.685.766 1.575 1.153 2.673 1.153 1.287 0 2.288-.498 3.001-1.485.718-.99 1.076-2.296 1.076-3.919zm3.478-.125c0 2.612-.709 4.676-2.129 6.191-1.272 1.35-2.85 2.023-4.736 2.023-2.034 0-3.497-.725-4.386-2.178v8.057h-3.412V40.191c0-1.64-.044-3.322-.127-5.047h3.002l.19 2.434h.064c1.136-1.834 2.863-2.75 5.183-2.75 1.81 0 3.323.715 4.536 2.147 1.207 1.435 1.815 3.32 1.815 5.658zm-21.143.125c0-1.495-.336-2.727-1.011-3.698-.738-1.01-1.729-1.516-2.971-1.516-.842 0-1.607.282-2.29.837-.686.56-1.134 1.292-1.344 2.197a4.453 4.453 0 0 0-.158 1.039v2.562c0 1.115.342 2.058 1.028 2.83.685.767 1.575 1.153 2.67 1.153 1.285 0 2.285-.498 3-1.485.718-.99 1.076-2.296 1.076-3.919zm3.477-.125c0 2.612-.71 4.676-2.129 6.191-1.271 1.35-2.85 2.023-4.735 2.023-2.034 0-3.497-.725-4.385-2.178v8.057H88.84V40.191c0-1.64-.043-3.322-.127-5.047h3.002l.19 2.434h.064c1.138-1.834 2.865-2.75 5.183-2.75 1.812 0 3.325.715 4.535 2.147 1.208 1.435 1.815 3.32 1.815 5.658zm-23.83-1.013l-1.801-5.56c-.19-.569-.55-1.906-1.074-4.012h-.064a169.13 169.13 0 0 1-1.012 4.011l-1.77 5.561h5.72zm6.226 8.88h-3.635l-1.991-6.255H73.35L71.455 50.5h-3.54l6.86-21.296h4.235L85.899 50.5zM192.413 17.017c0-1.165-.588-1.988-1.66-1.988-.964 0-1.726.839-1.835 1.988h3.495zm1.538 1.195h-5.034c.032 1.43.978 2.236 2.378 2.236a5.67 5.67 0 0 0 2.035-.357l.26 1.165c-.713.31-1.554.465-2.532.465-2.36 0-3.758-1.491-3.758-3.803 0-2.314 1.431-4.054 3.57-4.054 1.928 0 3.139 1.43 3.139 3.588.01.255-.009.51-.058.76zm-9.098 3.37h-1.676v-4.301c0-1.35-.51-2.034-1.522-2.034-.87 0-1.68.59-1.68 1.786v4.55H178.3v-11.01h1.676v4.533h.033c.528-.822 1.293-1.227 2.27-1.227 1.597 0 2.574 1.241 2.574 3.215v4.488zm-8.88-6.289h-1.846v3.665c0 .933.323 1.398.976 1.398.296 0 .544-.032.744-.078l.047 1.274c-.325.125-.76.187-1.301.187-1.323 0-2.113-.73-2.113-2.64v-3.806h-1.102v-1.257h1.102v-1.383l1.647-.498v1.879h1.845v1.26zm-11.287 6.29h-1.679v-4.334c0-1.335-.512-2.004-1.522-2.004-.994 0-1.676.855-1.676 1.849v4.488h-1.68v-5.39c0-.667-.015-1.382-.062-2.158h1.476l.079 1.165h.046c.45-.807 1.367-1.32 2.391-1.32 1.585 0 2.627 1.211 2.627 3.183v4.52zm-12.719-6.477c-1.21 0-1.986 1.133-1.986 2.717 0 1.554.792 2.687 1.97 2.687 1.182 0 1.972-1.211 1.972-2.719.004-1.536-.773-2.685-1.956-2.685zm-.062 6.647c-2.204 0-3.634-1.646-3.634-3.882 0-2.33 1.46-3.99 3.759-3.99 2.175 0 3.635 1.568 3.635 3.867.001 2.359-1.505 4.005-3.76 4.005zm-12.325-4.611c0-1.057-.7-1.957-1.767-1.957-1.244 0-2.004 1.102-2.004 2.654 0 1.522.789 2.564 1.97 2.564 1.055 0 1.8-.917 1.8-2.004v-1.257zm.248 4.44l-.078-1.211h-.047c-.482.915-1.292 1.382-2.423 1.382-1.82 0-3.168-1.6-3.168-3.851 0-2.36 1.398-4.023 3.305-4.023 1.01 0 1.726.34 2.13 1.025h.033v-4.331h1.68v8.975c0 .73.017 1.413.061 2.034h-1.493zm-9.78-3.759c-1.863 0-2.798.451-2.798 1.522 0 .792.482 1.18 1.151 1.18.853 0 1.647-.652 1.647-1.537v-1.165zm.23 3.76l-.121-.87h-.045c-.512.7-1.26 1.04-2.207 1.04-1.353 0-2.313-.947-2.313-2.22 0-1.863 1.615-2.827 4.411-2.827v-.139c0-.994-.526-1.491-1.567-1.491-.744 0-1.397.187-1.972.56l-.34-1.103c.697-.435 1.568-.653 2.59-.653 1.973 0 2.968 1.04 2.968 3.122v2.78c0 .762.034 1.352.11 1.802l-1.513-.002zm-10.31-6.477c-1.21 0-1.987 1.133-1.987 2.717 0 1.554.794 2.687 1.97 2.687 1.181 0 1.972-1.211 1.972-2.719.002-1.536-.773-2.685-1.954-2.685zm-.062 6.647c-2.204 0-3.635-1.646-3.635-3.882 0-2.33 1.46-3.99 3.759-3.99 2.175 0 3.635 1.568 3.635 3.867.001 2.359-1.507 4.005-3.759 4.005zm-7.795-.17h1.68v-11.01h-1.68v11.01zm-2.947 0h-1.677v-4.334c0-1.335-.512-2.004-1.522-2.004-.994 0-1.678.855-1.678 1.849v4.488h-1.677v-5.39c0-.667-.016-1.382-.063-2.158h1.476l.079 1.165h.046c.451-.807 1.367-1.319 2.393-1.319 1.585 0 2.625 1.212 2.625 3.183l-.002 4.52zm-8.691-7.547l-2.361 7.546h-1.538l-.978-3.277a24.863 24.863 0 0 1-.607-2.437h-.032c-.123.822-.357 1.646-.605 2.437l-1.04 3.277h-1.555l-2.221-7.546h1.723l.855 3.587c.202.855.372 1.661.512 2.423h.032c.124-.635.325-1.43.622-2.407l1.072-3.602h1.367l1.026 3.525c.248.855.45 1.693.607 2.486h.044c.11-.777.28-1.6.513-2.486l.917-3.525 1.647-.001zm-16.274 1.07c-1.212 0-1.988 1.133-1.988 2.717 0 1.554.792 2.687 1.972 2.687s1.972-1.211 1.972-2.719c0-1.536-.776-2.685-1.956-2.685zm-.064 6.647c-2.206 0-3.635-1.646-3.635-3.882 0-2.33 1.46-3.99 3.76-3.99 2.174 0 3.635 1.568 3.635 3.867 0 2.359-1.506 4.005-3.76 4.005zM72.94 12.357c-.528 0-.978.032-1.35.109v7.826c.2.032.588.047 1.132.047 2.565 0 4.024-1.46 4.024-4.193 0-2.437-1.32-3.79-3.806-3.79zm-.573 9.318c-.95 0-1.77-.046-2.454-.125V11.254c.956-.147 1.922-.22 2.89-.217 3.913 0 5.715 1.925 5.715 5.063 0 3.62-2.129 5.575-6.15 5.575z"/>
    </g>
</svg>
