<?xml version="1.0" encoding="utf-8"?>
<!-- Generator: Adobe Illustrator 22.1.0, SVG Export Plug-In . SVG Version: 6.00 Build 0)  -->
<svg version="1.1" id="Layer_1" xmlns="http://www.w3.org/2000/svg" xmlns:xlink="http://www.w3.org/1999/xlink" x="0px" y="0px"
	 viewBox="0 0 26 26" style="enable-background:new 0 0 26 26;" xml:space="preserve">
<style type="text/css">
	.st0{fill:#00BDF0;}
</style>
<g id="surface1">
	<path class="st0" d="M16.9,2c0,0-0.1,0-0.1,0H1c0,0-0.1,0-0.1,0C0.4,2,0,2.5,0,3v16c0,2.4,1.3,3.8,2.6,4.4S5,24,5,24h16
		c0,0,0.1,0,0.1,0c0,0,0,0,0,0c0.2,0,1.2,0,2.3-0.6c1.2-0.6,2.4-2,2.5-4.1c0,0,0,0,0-0.1c0,0,0,0,0-0.1c0-0.1,0-0.1,0-0.2
		c0,0,0-0.1,0-0.1V8c0,0,0,0,0,0c0,0,0-0.7-0.4-1.4c-0.3-0.7-1.1-1.4-2.3-1.5C23.2,5,23.1,5,23,5h-5V3.2c0-0.1,0-0.1,0-0.2
		c0,0,0-0.1,0-0.1c0,0,0,0,0-0.1c0,0,0,0,0,0c0,0,0,0,0-0.1c0,0,0,0,0,0c0,0,0-0.1,0-0.1c0,0,0-0.1-0.1-0.1c0-0.1-0.1-0.1-0.1-0.2
		c0,0-0.1,0-0.1-0.1c0,0-0.1-0.1-0.1-0.1c0,0,0,0,0,0C17.4,2.1,17.3,2,17.2,2C17.1,2,17,2,16.9,2z M2,4h14v1.8c0,0.1,0,0.3,0,0.4V19
		c0,1.3,0.4,2.3,1,3H5c0,0-0.5,0-1-0.2c-0.2-0.1-0.4-0.1-0.6-0.2C2.7,21.2,2,20.7,2,19V4z M4,6C3.4,6,3,6.4,3,7v2c0,0.6,0.4,1,1,1
		h10c0.6,0,1-0.4,1-1V7c0-0.6-0.4-1-1-1H4z M18,7h2.2C20,7.5,20,8,20,8c0,0,0,0,0,0v10c0,0.4,0.2,0.7,0.5,0.9c0.3,0.2,0.7,0.2,1,0
		c0.3-0.2,0.5-0.5,0.5-0.9V8c0,0,0-0.3,0.2-0.5C22.3,7.2,22.4,7,23,7c0.6,0,0.7,0.2,0.8,0.5C24,7.7,24,8,24,8v0V19c0,0,0,0.1,0,0.1
		c0,1.6-0.7,2.1-1.4,2.5C21.8,22,21,22,21,22s-0.8,0-1.6-0.4S18,20.6,18,19V7z M3.7,12c-0.6,0.1-0.9,0.6-0.9,1.1S3.4,14.1,4,14h3
		c0.4,0,0.7-0.2,0.9-0.5c0.2-0.3,0.2-0.7,0-1C7.7,12.2,7.4,12,7,12H4c0,0-0.1,0-0.1,0S3.8,12,3.7,12C3.8,12,3.8,12,3.7,12z M9.7,12
		c-0.6,0.1-0.9,0.6-0.9,1.1S9.4,14.1,10,14h4c0.4,0,0.7-0.2,0.9-0.5c0.2-0.3,0.2-0.7,0-1C14.7,12.2,14.4,12,14,12h-4
		c0,0-0.1,0-0.1,0S9.8,12,9.7,12C9.8,12,9.8,12,9.7,12z M3.7,15c-0.6,0.1-0.9,0.6-0.9,1.1S3.4,17.1,4,17h3c0.4,0,0.7-0.2,0.9-0.5
		c0.2-0.3,0.2-0.7,0-1C7.7,15.2,7.4,15,7,15H4c0,0-0.1,0-0.1,0S3.8,15,3.7,15C3.8,15,3.8,15,3.7,15z M9.7,15
		c-0.6,0.1-0.9,0.6-0.9,1.1S9.4,17.1,10,17h4c0.4,0,0.7-0.2,0.9-0.5c0.2-0.3,0.2-0.7,0-1C14.7,15.2,14.4,15,14,15h-4
		c0,0-0.1,0-0.1,0S9.8,15,9.7,15C9.8,15,9.8,15,9.7,15z M4.2,18c-0.6,0.1-0.9,0.6-0.9,1.1s0.6,0.9,1.1,0.9H7c0.4,0,0.7-0.2,0.9-0.5
		c0.2-0.3,0.2-0.7,0-1C7.7,18.2,7.4,18,7,18H4.5c0,0-0.1,0-0.1,0S4.3,18,4.2,18C4.3,18,4.2,18,4.2,18z M9.7,18
		c-0.6,0.1-0.9,0.6-0.9,1.1S9.4,20.1,10,20h4c0.4,0,0.7-0.2,0.9-0.5c0.2-0.3,0.2-0.7,0-1C14.7,18.2,14.4,18,14,18h-4
		c0,0-0.1,0-0.1,0S9.8,18,9.7,18C9.8,18,9.8,18,9.7,18z"/>
</g>
</svg>
