<?xml version="1.0" encoding="utf-8"?>
<!-- Generator: Adobe Illustrator 22.1.0, SVG Export Plug-In . SVG Version: 6.00 Build 0)  -->
<svg version="1.1" id="Layer_1" xmlns="http://www.w3.org/2000/svg" xmlns:xlink="http://www.w3.org/1999/xlink" x="0px" y="0px"
	 viewBox="0 0 26 26" style="enable-background:new 0 0 26 26;" xml:space="preserve">
<style type="text/css">
	.st0{fill:#00BDF0;}
</style>
<g id="surface1">
	<path class="st0" d="M4,1v18c3.4,0,6-0.7,8,0.9V2.8C10,1,7.4,1,4,1z M22,1c-3.4,0-6,0-8,1.8v17.1c2-1.6,4.6-0.9,8-0.9V1z M1,4
		C0.4,4,0,4.4,0,5v18c0,0.6,0.4,1,1,1h8.1c1,0,2.3,1.9,3.9,1.9c1.6,0,2.9-1.9,3.9-1.9H25c0.6,0,1-0.4,1-1V5c0-0.6-0.4-1-1-1h-1v15
		c0,1.5-0.5,2-2,2h-4.3c-1.7,0-2.4,0.1-3,1.1c-0.4,0.6-1,0.9-1.7,0.9s-1.3-0.3-1.7-0.9c-0.6-1-1.4-1.1-3-1.1H4c-1.5,0-2-0.6-2-2V4H1
		z"/>
</g>
</svg>
