<?xml version="1.0" encoding="utf-8"?>
<!-- Generator: Adobe Illustrator 22.1.0, SVG Export Plug-In . SVG Version: 6.00 Build 0)  -->
<svg version="1.1" id="Layer_1" xmlns="http://www.w3.org/2000/svg" xmlns:xlink="http://www.w3.org/1999/xlink" x="0px" y="0px"
	 viewBox="0 0 26 26" style="enable-background:new 0 0 26 26;" xml:space="preserve">
<style type="text/css">
	.st0{fill:#004658;}
</style>
<g id="surface1">
	<path class="st0" d="M16.6,15.9c-0.2-0.1-1.2-0.5-0.5-2.4l0,0c1.6-1.7,2.9-4.4,2.9-7.1c0-4.1-2.7-6.3-5.9-6.3s-6,2.2-6,6.3
		c0,2.7,1.2,5.4,2.9,7.1c0.6,1.7-0.5,2.3-0.7,2.4C5.9,17.1,2,19.3,2,21.5c0,0.6,0,0.2,0,0.8c0,2.9,5.7,3.6,11,3.6s10.9-0.7,10.9-3.6
		c0-0.6,0-0.2,0-0.8C24,19.2,20.1,17.1,16.6,15.9z"/>
</g>
</svg>
