<svg xmlns="http://www.w3.org/2000/svg" width="216" height="65" viewBox="0 0 216 65">
    <defs>
        <linearGradient id="a" x1="90.733%" x2="-38.367%" y1="4.821%" y2="71.949%">
            <stop offset="0%" stop-color="#00A0FF"/>
            <stop offset=".7%" stop-color="#00A1FF"/>
            <stop offset="26%" stop-color="#00BEFF"/>
            <stop offset="51.2%" stop-color="#00D2FF"/>
            <stop offset="76%" stop-color="#00DFFF"/>
            <stop offset="100%" stop-color="#00E3FF"/>
        </linearGradient>
        <linearGradient id="b" x1="107.724%" x2="-130.67%" y1="50%" y2="50%">
            <stop offset="0%" stop-color="#FFE000"/>
            <stop offset="40.9%" stop-color="#FFBD00"/>
            <stop offset="77.5%" stop-color="#FFA500"/>
            <stop offset="100%" stop-color="#FF9C00"/>
        </linearGradient>
        <linearGradient id="c" x1="86.32%" x2="-49.955%" y1="17.725%" y2="194.3%">
            <stop offset="0%" stop-color="#FF3A44"/>
            <stop offset="100%" stop-color="#C31162"/>
        </linearGradient>
        <linearGradient id="d" x1="-18.793%" x2="42.063%" y1="-54.251%" y2="24.969%">
            <stop offset="0%" stop-color="#32A071"/>
            <stop offset="6.9%" stop-color="#2DA771"/>
            <stop offset="47.6%" stop-color="#15CF74"/>
            <stop offset="80.1%" stop-color="#06E775"/>
            <stop offset="100%" stop-color="#00F076"/>
        </linearGradient>
    </defs>
    <g fill="none" fill-rule="nonzero">
        <path fill="#000" d="M208 64.035H8c-4.48 0-8-3.522-8-8.004V8.004C0 3.522 3.52 0 8 0h200c4.48 0 8 3.522 8 8.004v48.027c0 4.482-3.52 8.004-8 8.004z"/>
        <path fill="#FFF" d="M208 1.28c3.68 0 6.72 3.042 6.72 6.724v48.027c0 3.682-3.04 6.724-6.72 6.724H8c-3.68 0-6.72-3.042-6.72-6.724V8.004c0-3.682 3.04-6.723 6.72-6.723h200zM208 0H8C3.52 0 0 3.682 0 8.004v48.027c0 4.482 3.52 8.004 8 8.004h200c4.48 0 8-3.522 8-8.004V8.004C216 3.682 212.48 0 208 0z"/>
        <path fill="#FFF" stroke="#FFF" stroke-width=".2" d="M75.936 16.377c0 1.283-.32 2.405-1.12 3.207-.961.962-2.082 1.443-3.523 1.443-1.441 0-2.562-.481-3.523-1.443-.96-.962-1.44-2.084-1.44-3.527s.48-2.565 1.44-3.527c.96-.962 2.082-1.443 3.523-1.443.64 0 1.28.16 1.921.48.64.321 1.12.642 1.441 1.123l-.8.802c-.64-.802-1.441-1.123-2.562-1.123-.961 0-1.922.32-2.562 1.123-.8.64-1.12 1.603-1.12 2.725s.32 2.084 1.12 2.725c.8.642 1.601 1.123 2.562 1.123 1.12 0 1.921-.321 2.722-1.123.48-.48.8-1.122.8-1.923h-3.522v-1.283h4.643v.641zm7.365-4.008h-4.323v3.046h4.003v1.123h-4.003v3.046h4.323v1.282h-5.604v-9.619h5.604v1.122zm5.284 8.497h-1.281V12.37h-2.722v-1.122h6.725v1.122h-2.722v8.497zm7.365 0v-9.619h1.281v9.62h-1.28zm6.725 0h-1.281V12.37h-2.722v-1.122h6.565v1.122h-2.722v8.497h.16zm15.21-1.282c-.96.962-2.08 1.443-3.522 1.443-1.44 0-2.562-.481-3.522-1.443-.961-.962-1.441-2.084-1.441-3.527s.48-2.565 1.44-3.527c.961-.962 2.082-1.443 3.523-1.443 1.441 0 2.562.48 3.523 1.443.96.962 1.44 2.084 1.44 3.527s-.48 2.565-1.44 3.527zm-6.084-.802c.64.641 1.601 1.122 2.562 1.122.96 0 1.921-.32 2.562-1.122a3.87 3.87 0 0 0 1.12-2.725c0-1.123-.32-2.085-1.12-2.726-.64-.641-1.601-1.122-2.562-1.122-.96 0-1.921.32-2.562 1.122a3.87 3.87 0 0 0-1.12 2.726c0 1.122.32 2.084 1.12 2.725zm9.287 2.084v-9.619h1.44l4.644 7.535v-7.535h1.281v9.62h-1.28l-4.964-7.856v7.855h-1.121z"/>
        <path fill="#FFF" d="M108.948 34.83c-3.84 0-6.88 2.87-6.88 6.858 0 3.827 3.04 6.857 6.88 6.857 3.839 0 6.878-2.87 6.878-6.857 0-4.147-3.04-6.858-6.878-6.858zm0 10.845c-2.08 0-3.84-1.755-3.84-4.147 0-2.392 1.76-4.146 3.84-4.146s3.839 1.595 3.839 4.146c0 2.392-1.76 4.147-3.84 4.147zM94.07 34.83c-3.839 0-6.878 2.87-6.878 6.858 0 3.827 3.04 6.857 6.878 6.857 3.84 0 6.88-2.87 6.88-6.857 0-4.147-3.04-6.858-6.88-6.858zm0 10.845c-2.08 0-3.839-1.755-3.839-4.147 0-2.392 1.76-4.146 3.84-4.146 2.079 0 3.839 1.595 3.839 4.146 0 2.392-1.76 4.147-3.84 4.147zm-17.756-8.772v2.871h6.878c-.16 1.595-.8 2.87-1.6 3.668-.959.957-2.559 2.073-5.278 2.073-4.32 0-7.519-3.349-7.519-7.655s3.36-7.655 7.519-7.655c2.24 0 3.999.957 5.279 2.073l2.08-2.073c-1.76-1.595-4-2.87-7.2-2.87-5.758 0-10.717 4.784-10.717 10.525 0 5.742 4.959 10.526 10.718 10.526 3.2 0 5.439-.957 7.358-3.03 1.92-1.914 2.56-4.625 2.56-6.698 0-.638 0-1.276-.16-1.755h-9.918zm72.626 2.233c-.64-1.595-2.24-4.306-5.759-4.306-3.52 0-6.399 2.711-6.399 6.858 0 3.827 2.88 6.857 6.72 6.857 3.039 0 4.958-1.913 5.598-3.03l-2.24-1.595c-.8 1.117-1.76 1.914-3.359 1.914-1.6 0-2.56-.638-3.36-2.073l9.119-3.828-.32-.797zm-9.278 2.233c0-2.552 2.08-3.987 3.52-3.987 1.119 0 2.239.638 2.559 1.435l-6.08 2.552zm-7.519 6.538h3.04V27.972h-3.04v19.935zm-4.799-11.642c-.8-.797-2.08-1.594-3.68-1.594-3.359 0-6.558 3.03-6.558 6.857 0 3.828 3.04 6.698 6.559 6.698 1.6 0 2.88-.797 3.52-1.594h.16v.957c0 2.551-1.44 3.987-3.68 3.987-1.76 0-3.04-1.276-3.36-2.393l-2.56 1.117c.8 1.754 2.72 3.987 6.08 3.987 3.52 0 6.399-2.074 6.399-7.017V35.15h-2.88v1.115zm-3.52 9.41c-2.079 0-3.838-1.755-3.838-4.147 0-2.392 1.76-4.146 3.839-4.146 2.08 0 3.68 1.754 3.68 4.146s-1.6 4.147-3.68 4.147zm39.033-17.703h-7.198v19.935h3.04v-7.495h4.158c3.36 0 6.56-2.392 6.56-6.22 0-3.827-3.2-6.22-6.56-6.22zm.16 9.57h-4.319v-6.858h4.32c2.239 0 3.519 1.913 3.519 3.349-.16 1.754-1.44 3.508-3.52 3.508zm18.397-2.871c-2.24 0-4.48.957-5.28 3.03l2.72 1.116c.64-1.116 1.6-1.435 2.72-1.435 1.6 0 3.04.957 3.2 2.551v.16c-.48-.319-1.76-.797-3.04-.797-2.88 0-5.759 1.594-5.759 4.465 0 2.711 2.4 4.465 4.959 4.465 2.08 0 3.04-.956 3.84-1.913h.16v1.594h2.879v-7.655c-.32-3.508-3.04-5.581-6.4-5.581zm-.32 11.004c-.96 0-2.4-.479-2.4-1.755 0-1.594 1.76-2.073 3.2-2.073 1.28 0 1.92.32 2.72.638-.32 1.914-1.92 3.19-3.52 3.19zm16.797-10.526l-3.36 8.612h-.16l-3.519-8.612h-3.2l5.28 12.12-3.04 6.699h3.04l8.158-18.819h-3.2zm-26.875 12.758h3.04V27.972h-3.04v19.935z"/>
        <path fill="url(#a)" d="M.654.606c-.478.48-.638 1.28-.638 2.24v35.35c0 .96.32 1.76.798 2.24l.16.16L20.767 20.76v-.32L.654.606z" transform="translate(16.057 11.469)"/>
        <path fill="url(#b)" d="M27.152 27.48l-6.545-6.559v-.48l6.545-6.558.16.16 7.821 4.479c2.235 1.28 2.235 3.359 0 4.638l-7.981 4.32z" transform="translate(16.057 11.469)"/>
        <path fill="url(#c)" d="M27.311 27.32L20.607 20.6.654 40.596c.799.8 1.916.8 3.353.16L27.31 27.319" transform="translate(16.057 11.469)"/>
        <path fill="url(#d)" d="M27.311 13.883L4.007.606c-1.437-.8-2.554-.64-3.353.16l19.953 19.835 6.704-6.718z" transform="translate(16.057 11.469)"/>
        <path fill="#000" d="M43.208 38.628L20.063 51.745c-1.277.8-2.394.64-3.192 0l-.16.16.16.16c.798.64 1.915.8 3.192 0l23.145-13.437z" opacity=".2"/>
        <path fill="#000" d="M16.711 51.745c-.479-.48-.638-1.28-.638-2.24v.16c0 .96.319 1.76.798 2.24v-.16h-.16zM51.19 34.15l-7.982 4.478.16.16 7.822-4.478c1.117-.64 1.596-1.44 1.596-2.24 0 .8-.639 1.44-1.596 2.08z" opacity=".12"/>
        <path fill="#FFF" d="M20.063 12.235L51.19 29.991c.957.64 1.596 1.28 1.596 2.08 0-.8-.479-1.6-1.596-2.24L20.063 12.075c-2.235-1.28-3.99-.32-3.99 2.24v.16c0-2.4 1.755-3.52 3.99-2.24z" opacity=".25"/>
    </g>
</svg>
