<?xml version="1.0" encoding="utf-8"?>
<!-- Generator: Adobe Illustrator 22.1.0, SVG Export Plug-In . SVG Version: 6.00 Build 0)  -->
<svg version="1.1" id="Layer_1" xmlns="http://www.w3.org/2000/svg" xmlns:xlink="http://www.w3.org/1999/xlink" x="0px" y="0px"
	 viewBox="0 0 26 26" style="enable-background:new 0 0 26 26;" xml:space="preserve">
<style type="text/css">
	.st0{fill:#00BDF0;}
</style>
<g id="surface1">
	<path class="st0" d="M3,0C1.3,0,0,1.3,0,3v18c0,1.7,1.3,3,3,3h11.9c-1.1-0.4-2-1.1-2.8-2H3c-0.6,0-1-0.4-1-1V4h20v8.1
		c0.9,0.7,1.6,1.7,2,2.8V3c0-1.7-1.3-3-3-3H3z M5,8v2h2V8H5z M9,8v2h10V8H9z M5,12v2h2v-2H5z M9,12v2h2.4c0.4-0.8,1-1.5,1.7-2H9z
		 M17.5,12c-3,0-5.5,2.5-5.5,5.5s2.5,5.5,5.5,5.5c1.3,0,2.4-0.5,3.4-1.2l0.2,0.2c-0.3,0.4-0.2,0.9,0.1,1.2l2.5,2.5
		c0.4,0.4,1,0.4,1.4,0l0.5-0.5c0.4-0.4,0.4-1,0-1.4l-2.5-2.5c-0.3-0.3-0.8-0.4-1.2-0.2l-0.2-0.2c0.8-0.9,1.2-2.1,1.2-3.4
		C23,14.5,20.5,12,17.5,12z M17.5,13.5c2.2,0,4,1.8,4,4s-1.8,4-4,4s-4-1.8-4-4S15.3,13.5,17.5,13.5z M5,16v2h2v-2H5z M9,16v2h1.5
		v-0.5c0-0.5,0.1-1,0.2-1.5H9z"/>
</g>
</svg>
