<svg xmlns="http://www.w3.org/2000/svg" width="39" height="39" viewBox="0 0 39 39">
    <g fill="#7F48E0" fill-rule="evenodd">
        <circle cx="19.5" cy="19.5" r="19.5" opacity=".1"/>
        <g fill-rule="nonzero">
            <path d="M31.398 18.447L21.1 7.64A2.023 2.023 0 0 0 19.63 7c-.531 0-1.063.213-1.468.639l-5.64 5.917c-.812.852-.812 2.26 0 3.11l.934 1.009h2.157l-2.013-2.14a.623.623 0 0 1-.162-.424c0-.09.021-.27.162-.417l.745-.757 3.539 3.738h3.395l-5.237-5.523 3.197-3.369a.531.531 0 0 1 .782-.01l10.3 10.807c.141.148.163.32.163.41 0 .09-.037.262-.178.41l-.584.598v2.263l1.663-1.73c.81-.852.825-2.232.013-3.084z"/>
            <path d="M26.185 18.478H12.064c-1.113 0-2.064.817-2.064 1.83v4.866h18.174v-4.866c0-1.013-.877-1.83-1.99-1.83zm-11.25 5.04c-.394 0-.751-.144-1.014-.374-.264.23-.621.373-1.015.373-.809 0-1.465-.597-1.465-1.336 0-.737.656-1.335 1.465-1.335.394 0 .752.143 1.015.373.263-.23.62-.373 1.014-.373.81 0 1.466.598 1.466 1.335 0 .739-.656 1.336-1.466 1.336zM10 28.15c0 .994.95 1.807 2.063 1.807h14.121c1.113 0 1.99-.813 1.99-1.808v-.106H10v.106z"/>
        </g>
    </g>
</svg>
