<svg xmlns="http://www.w3.org/2000/svg" xmlns:xlink="http://www.w3.org/1999/xlink" width="1400" height="693" viewBox="0 0 1400 693" preserveAspectRatio="none">
    <defs>
        <path id="a" d="M0 0h1400v699H0z"/>
        <linearGradient id="c" x1="17.002%" x2="83.954%" y1="59.484%" y2="59.484%">
            <stop offset="0%" stop-color="#5E97FC"/>
            <stop offset="100%" stop-color="#7F48E0"/>
        </linearGradient>
        <path id="b" d="M739.5 585.458C1486.044 242.825 1969 366.198 1969 95.728 1969-174.74 1418.534-394 739.5-394S-490-174.741-490 95.729-7.044 928.09 739.5 585.458z"/>
    </defs>
    <g fill="none" fill-rule="evenodd">
        <mask id="d" fill="#fff">
            <use xlink:href="#b"/>
        </mask>
        <use fill="url(#c)" xlink:href="#b"/>
        <g mask="url(#d)">
            <g opacity=".03">
                <g transform="rotate(-180 475.5 285)">
                    <path fill="#000" fill-rule="nonzero" d="M267.51 141.39a5.241 5.241 0 0 0 5.245-5.236 5.241 5.241 0 0 0-5.246-5.237 5.241 5.241 0 0 0-5.245 5.237 5.241 5.241 0 0 0 5.245 5.237zm0 5.237c-5.794 0-10.491-4.689-10.491-10.473 0-5.784 4.697-10.474 10.49-10.474 5.794 0 10.491 4.69 10.491 10.474s-4.697 10.473-10.49 10.473z"/>
                    <ellipse cx="54.201" cy="181.538" fill="#FFF" rx="13.987" ry="13.964"/>
                    <path fill="#000" fill-rule="nonzero" d="M174.843 179.211V87.86H122.95a3.494 3.494 0 0 1-3.497-3.491 3.494 3.494 0 0 1 3.497-3.491h47.718L137.54 47.712H63.821a3.494 3.494 0 0 1-3.497-3.491 3.494 3.494 0 0 1 3.497-3.491h66.745L96.857 6.982H8.939a3.494 3.494 0 0 1-3.497-3.49A3.494 3.494 0 0 1 8.939 0h89.37c.928 0 1.82.37 2.475 1.026l80.032 80.123a3.488 3.488 0 0 1 1.02 2.465v47.303h75.875a3.494 3.494 0 0 1 3.497 3.491 3.494 3.494 0 0 1-3.497 3.491h-75.875v72.445c0 .924-.367 1.81-1.02 2.465l-35.74 35.78a3.5 3.5 0 0 1-2.476 1.026L3.497 295A3.494 3.494 0 0 1 0 291.509a3.494 3.494 0 0 1 3.497-3.491l137.652-45.385 33.694-33.732v-22.708H65.718a3.494 3.494 0 0 1-3.497-3.49 3.494 3.494 0 0 1 3.497-3.492h109.125z"/>
                </g>
                <g fill="#000" fill-rule="nonzero">
                    <path d="M465.467 597.505h49.384v6.995H458.5v-66.238h83.439l14.387 14.446 105.53-105.96 4.927 4.947L556.326 562.6l-17.273-17.344h-73.586z"/>
                    <path d="M461.983 523.309a3.49 3.49 0 0 1-3.483-3.498 3.49 3.49 0 0 1 3.483-3.497h82.847c.924 0 1.81.368 2.463 1.024l14.68 14.739a3.508 3.508 0 0 1 0 4.946 3.473 3.473 0 0 1-4.927 0l-13.658-13.714h-81.405z"/>
                </g>
            </g>
            <g fill="#000" fill-rule="nonzero" opacity=".03">
                <path d="M84.533 487.495H35.15V480.5H91.5v66.238H8.061l-14.387-14.446-105.53 105.96-4.927-4.947L-6.326 522.4l17.273 17.344h73.586z"/>
                <path d="M88.017 561.691a3.49 3.49 0 0 1 3.483 3.498 3.49 3.49 0 0 1-3.483 3.497H5.17c-.924 0-1.81-.368-2.463-1.024l-14.68-14.739a3.508 3.508 0 0 1 0-4.946 3.473 3.473 0 0 1 4.927 0l13.658 13.714h81.405z"/>
            </g>
            <g fill="#000" opacity=".2">
                <g opacity=".109" transform="translate(981 3)">
                    <path fill-rule="nonzero" d="M267.51 141.39a5.241 5.241 0 0 0 5.245-5.236 5.241 5.241 0 0 0-5.246-5.237 5.241 5.241 0 0 0-5.245 5.237 5.241 5.241 0 0 0 5.245 5.237zm0 5.237c-5.794 0-10.491-4.689-10.491-10.473 0-5.784 4.697-10.474 10.49-10.474 5.794 0 10.491 4.69 10.491 10.474s-4.697 10.473-10.49 10.473z"/>
                    <ellipse cx="54.201" cy="181.538" rx="13.987" ry="13.964"/>
                    <path fill-rule="nonzero" d="M174.843 179.211V87.86H122.95a3.494 3.494 0 0 1-3.497-3.491 3.494 3.494 0 0 1 3.497-3.491h47.718L137.54 47.712H63.821a3.494 3.494 0 0 1-3.497-3.491 3.494 3.494 0 0 1 3.497-3.491h66.745L96.857 6.982H8.939a3.494 3.494 0 0 1-3.497-3.49A3.494 3.494 0 0 1 8.939 0h89.37c.928 0 1.82.37 2.475 1.026l80.032 80.123a3.488 3.488 0 0 1 1.02 2.465v47.303h75.875a3.494 3.494 0 0 1 3.497 3.491 3.494 3.494 0 0 1-3.497 3.491h-75.875v72.445c0 .924-.367 1.81-1.02 2.465l-35.74 35.78a3.5 3.5 0 0 1-2.476 1.026L3.497 295A3.494 3.494 0 0 1 0 291.509a3.494 3.494 0 0 1 3.497-3.491l137.652-45.385 33.694-33.732v-22.708H65.718a3.494 3.494 0 0 1-3.497-3.49 3.494 3.494 0 0 1 3.497-3.492h109.125z"/>
                </g>
                <g fill-rule="nonzero" opacity=".1">
                    <path d="M1466.533-24.505h-49.384V-31.5h56.351v66.238h-83.439l-14.387-14.446-105.53 105.96-4.927-4.947L1375.674 10.4l17.273 17.344h73.586z"/>
                    <path d="M1470.017 49.691a3.49 3.49 0 0 1 3.483 3.498 3.49 3.49 0 0 1-3.483 3.497h-82.847c-.924 0-1.81-.368-2.463-1.024l-14.68-14.739a3.508 3.508 0 0 1 0-4.946 3.473 3.473 0 0 1 4.927 0l13.658 13.714h81.405z"/>
                </g>
            </g>
        </g>
    </g>
</svg>
