<svg xmlns="http://www.w3.org/2000/svg" width="35" height="29" viewBox="0 0 35 29">
    <g fill="#5E97FC" fill-rule="nonzero">
        <path d="M3.266 17.907H2.239C1.004 17.907 0 18.82 0 19.942s1.004 2.035 2.239 2.035h5.087l-4.06-4.07zM28.029 4.514A15.39 15.39 0 0 0 17.093 0 15.39 15.39 0 0 0 6.158 4.514a15.286 15.286 0 0 0-4.53 10.899v.052h30.93v-.052c0-4.117-1.609-7.988-4.53-10.899zM5.698 17.907l4.476 4.884 4.477-4.884zM32.372 24.423H11.595l-1.46 1.42-1.46-1.42H1.815c-.063 0-.124-.002-.186-.004v4.07h30.93v-4.07a4.874 4.874 0 0 1-.186.004zM32.793 17.907H17.84l-4.003 4.07h18.956c1.217 0 2.207-.913 2.207-2.035s-.99-2.035-2.207-2.035z"/>
    </g>
</svg>
