<svg xmlns="http://www.w3.org/2000/svg" width="30" height="30" viewBox="0 0 30 30">
    <g fill="#202B40" fill-rule="nonzero">
        <path d="M10.286 26.571C11.006 28.573 12.847 30 15 30c2.153 0 3.994-1.427 4.714-3.429h-9.428zM25.165 11.253a10.232 10.232 0 0 0-3.21-6.74 10.123 10.123 0 0 0-6.081-2.718V0h-1.748v1.795a10.123 10.123 0 0 0-6.08 2.719 10.232 10.232 0 0 0-3.21 6.739l-.55 7.604h21.428l-.55-7.604zM27.986 23.143a5.967 5.967 0 0 0-1.59-2.572H3.604a5.967 5.967 0 0 0-1.591 2.572H0v1.714h30v-1.714h-2.014z"/>
    </g>
</svg>
