<svg xmlns="http://www.w3.org/2000/svg" width="20" height="17" viewBox="0 0 20 17">
    <path fill="#FFF" fill-rule="nonzero" d="M20 2.011a7.912 7.912 0 0 1-2.356.677A4.282 4.282 0 0 0 19.448.314a8.052 8.052 0 0 1-2.607 1.042A4.01 4.01 0 0 0 13.846 0C11.58 0 9.743 1.922 9.743 4.292c0 .336.036.665.106.978C6.44 5.091 3.417 3.382 1.393.785A4.413 4.413 0 0 0 .84 2.943c0 1.49.724 2.803 1.824 3.572a3.966 3.966 0 0 1-1.858-.538v.053c0 2.08 1.415 3.815 3.29 4.21-.343.097-.706.15-1.08.15a3.77 3.77 0 0 1-.773-.08c.522 1.707 2.037 2.948 3.832 2.982A8.003 8.003 0 0 1 0 15.068 11.227 11.227 0 0 0 6.289 17c7.547 0 11.673-6.542 11.673-12.215l-.014-.556A8.412 8.412 0 0 0 20 2.011z" />
</svg>
