<svg xmlns="http://www.w3.org/2000/svg" width="43" height="30" viewBox="0 0 43 30">
    <g fill="#202B40" fill-rule="nonzero">
        <path d="M40.48 7.32H11.67c-1.39 0-2.521 1.097-2.521 2.446V26.83c0 1.35 1.13 2.448 2.52 2.448h28.81c1.39 0 2.521-1.098 2.521-2.448V9.766c0-1.349-1.13-2.447-2.52-2.447zM18.492 26.14h-2.569c-.626 0-1.133-.527-1.133-1.176 0-.65.507-1.177 1.133-1.177h2.57c.625 0 1.133.527 1.133 1.177s-.508 1.176-1.134 1.176zm5.642 0h-2.569c-.626 0-1.133-.527-1.133-1.176 0-.65.507-1.177 1.133-1.177h2.57c.625 0 1.132.527 1.132 1.177s-.507 1.176-1.133 1.176zm5.642 0h-2.57c-.625 0-1.133-.527-1.133-1.176 0-.65.508-1.177 1.134-1.177h2.569c.626 0 1.133.527 1.133 1.177s-.507 1.176-1.133 1.176zm.073-10.979H23.91c-.586 0-1.06-.527-1.06-1.176 0-.65.474-1.176 1.06-1.176h5.939c.586 0 1.06.526 1.06 1.176 0 .65-.474 1.176-1.06 1.176zm5.896 1.568c-1.777 0-3.224-1.407-3.224-3.136 0-1.73 1.447-3.137 3.224-3.137 1.778 0 3.224 1.407 3.224 3.137s-1.446 3.136-3.224 3.136z"/>
        <path d="M34.688 7.018c0 .436.356.789.795.789.44 0 .796-.353.796-.789V2.366A2.376 2.376 0 0 0 33.892 0h-2.07a.792.792 0 0 0-.795.789c0 .435.356.788.795.788h2.07c.44 0 .796.354.796.79v4.651zM1.591 7.018a.792.792 0 0 1-.795.789A.792.792 0 0 1 0 7.018V2.366A2.376 2.376 0 0 1 2.387 0h2.07c.439 0 .795.353.795.789a.792.792 0 0 1-.796.788h-2.07a.792.792 0 0 0-.795.79v4.651zM1.591 15.774a.792.792 0 0 0-.795-.789.792.792 0 0 0-.796.789v4.652a2.376 2.376 0 0 0 2.387 2.366h2.07c.439 0 .795-.353.795-.789a.792.792 0 0 0-.796-.788h-2.07a.792.792 0 0 1-.795-.789v-4.652zM29.628 0c.44 0 .796.353.796.789a.792.792 0 0 1-.796.788h-4.06a.792.792 0 0 1-.795-.788c0-.436.357-.789.796-.789h4.06zM23.264 0c.44 0 .795.353.795.789a.792.792 0 0 1-.795.788h-4.06A.792.792 0 0 1 18.41.79c0-.436.356-.789.795-.789h4.06zM16.9 0c.439 0 .795.353.795.789a.792.792 0 0 1-.796.788h-4.06a.792.792 0 0 1-.795-.788c0-.436.357-.789.796-.789h4.06zM10.535 0c.44 0 .795.353.795.789a.792.792 0 0 1-.795.788h-4.06A.792.792 0 0 1 5.68.79c0-.436.356-.789.795-.789h4.06zM1.591 13.489a.792.792 0 0 1-.795.788A.792.792 0 0 1 0 13.49V9.464c0-.435.356-.788.796-.788.439 0 .795.353.795.788v4.025zM10.535 21.295c.44 0 .795.353.795.789a.792.792 0 0 1-.795.788h-4.06a.792.792 0 0 1-.795-.788c0-.436.356-.79.795-.79h4.06z"/>
    </g>
</svg>
