<svg xmlns="http://www.w3.org/2000/svg" width="80" height="80" viewBox="0 0 80 80">
    <g fill="none" fill-rule="evenodd">
        <circle cx="40" cy="40" r="40" fill="#1EC881" opacity=".05"/>
        <path fill="#1EC881" fill-rule="nonzero" d="M54.553 55.065a5.277 5.277 0 0 0 3.756 1.556 5.28 5.28 0 0 0 2.724-.75l2.747 2.748a1.297 1.297 0 0 0 1.84 0 1.3 1.3 0 0 0 0-1.838l-2.749-2.748c.489-.814.75-1.748.75-2.723a5.275 5.275 0 0 0-1.556-3.755A5.277 5.277 0 0 0 58.309 46a5.278 5.278 0 0 0-3.756 1.555 5.316 5.316 0 0 0 0 7.51zm1.84-5.671a2.694 2.694 0 0 1 1.916-.794c.724 0 1.405.282 1.917.794s.794 1.192.794 1.916-.282 1.405-.794 1.917a2.693 2.693 0 0 1-1.917.794 2.693 2.693 0 0 1-1.917-.794 2.713 2.713 0 0 1 0-3.833zM25.2 27h-6.4a.8.8 0 0 0-.8.8v6.4a.8.8 0 0 0 .8.8h6.4a.8.8 0 0 0 .8-.8v-6.4a.8.8 0 0 0-.8-.8z"/>
        <path fill="#C2F1E0" d="M28 27h31v3H28zM28 32h23v3H28z"/>
        <g>
            <path fill="#1EC881" fill-rule="nonzero" d="M25.2 40h-6.4a.8.8 0 0 0-.8.8v6.4a.8.8 0 0 0 .8.8h6.4a.8.8 0 0 0 .8-.8v-6.4a.8.8 0 0 0-.8-.8z"/>
            <path fill="#C2F1E0" d="M28 40h31v3H28zM28 45h23v3H28z"/>
        </g>
    </g>
</svg>
