<svg xmlns="http://www.w3.org/2000/svg" width="60" height="60" viewBox="0 0 60 60">
    <g fill="none" fill-rule="evenodd">
        <circle cx="30" cy="30" r="30" fill="#FFF"/>
        <g fill="#5E97FC" fill-rule="nonzero">
            <path d="M33.274 18c-1.22 0-2.207 1.006-2.207 2.246V38.96c0-1.24.988-2.246 2.207-2.246h8.46V18h-8.46zM26.726 18h-8.46v18.715h8.46c1.22 0 2.207 1.005 2.207 2.246V20.246c0-1.24-.988-2.246-2.207-2.246z"/>
            <path d="M43.806 20.168v18.715h-8.412c-1.212 0-2.194 1.006-2.194 2.246H46v-20.96h-2.194zM24.606 38.883h-8.412V20.168H14V41.13h12.8c0-1.24-.982-2.246-2.194-2.246z" opacity=".465"/>
        </g>
    </g>
</svg>
