<svg xmlns="http://www.w3.org/2000/svg" width="23" height="23" viewBox="0 0 23 23">
    <path fill="#FFF" fill-rule="nonzero" d="M21.457 5.636a11.36 11.36 0 0 0-4.185-4.118C15.51.506 13.587 0 11.5 0 9.414 0 7.49.506 5.728 1.518a11.36 11.36 0 0 0-4.186 4.118C.514 7.37 0 9.264 0 11.316 0 13.782.731 16 2.194 17.97c1.462 1.97 3.351 3.333 5.667 4.09.27.049.47.014.599-.104a.572.572 0 0 0 .195-.442l-.008-.795c-.005-.501-.007-.939-.007-1.312l-.345.06c-.22.039-.496.055-.83.05a6.431 6.431 0 0 1-1.042-.102 2.344 2.344 0 0 1-1.003-.442 1.87 1.87 0 0 1-.659-.906l-.15-.34a3.672 3.672 0 0 0-.47-.75c-.216-.276-.433-.462-.652-.56l-.105-.074a1.093 1.093 0 0 1-.195-.177.807.807 0 0 1-.134-.207c-.03-.069-.006-.125.074-.17.08-.044.225-.065.435-.065l.3.044c.199.04.446.157.74.353.295.197.537.452.726.766.23.403.507.71.832.921.324.212.65.317.98.317.33 0 .614-.024.854-.073.24-.05.464-.123.673-.222.09-.658.335-1.164.734-1.517a10.403 10.403 0 0 1-1.535-.266 6.167 6.167 0 0 1-1.407-.575 4.017 4.017 0 0 1-1.206-.987c-.319-.393-.581-.909-.786-1.547-.204-.639-.306-1.375-.306-2.21 0-1.19.394-2.2 1.183-3.036-.37-.894-.335-1.896.104-3.006.29-.088.72-.022 1.288.2.57.22.986.41 1.25.567.265.157.477.29.637.397a10.794 10.794 0 0 1 2.875-.383c.988 0 1.946.128 2.875.383l.569-.353c.39-.236.849-.452 1.377-.649.53-.196.934-.25 1.214-.161.449 1.11.489 2.112.12 3.005.788.835 1.182 1.847 1.182 3.036 0 .835-.102 1.574-.307 2.217-.204.644-.469 1.16-.793 1.548-.325.388-.729.714-1.213.98a6.178 6.178 0 0 1-1.408.574c-.454.118-.965.207-1.534.266.518.442.778 1.14.778 2.092v3.109c0 .177.062.324.187.442.125.117.322.152.592.103 2.316-.756 4.205-2.12 5.667-4.09C22.27 16 23 13.783 23 11.317c0-2.053-.515-3.946-1.543-5.68z" />
</svg>
