<svg xmlns="http://www.w3.org/2000/svg" width="39" height="39" viewBox="0 0 39 39">
    <g fill="none" fill-rule="evenodd">
        <circle cx="19.5" cy="19.5" r="19.5" fill="#1EC881" opacity=".1"/>
        <g fill-rule="nonzero">
            <path fill="#1EC881" d="M28.243 10H11.757a.755.755 0 0 0-.757.753v12.296c0 4.959 8.336 8.727 8.69 8.885a.76.76 0 0 0 .62 0c.354-.158 8.69-3.926 8.69-8.885V10.753a.755.755 0 0 0-.757-.753zm-.757 13.05c0 3.16-5.138 6.255-7.486 7.368-2.35-1.112-7.486-4.202-7.486-7.369V11.506h14.972v11.543z"/>
            <path fill="#1EC881" d="M16.966 26.264c.916.666 1.849 1.2 2.47 1.531a.743.743 0 0 0 .7 0c.62-.33 1.553-.864 2.47-1.531 1.107-.805 2.965-2.38 2.965-3.882v-8.643A.74.74 0 0 0 24.83 13H14.742a.74.74 0 0 0-.742.739v8.643c0 1.501 1.858 3.077 2.966 3.882z"/>
            <path fill="#FFF" d="M22.6 18.45h-2.8V16L17 20.55h2.8V23z"/>
        </g>
    </g>
</svg>
