<svg xmlns="http://www.w3.org/2000/svg" width="64" height="50" viewBox="0 0 64 50">
    <g fill="none" fill-rule="evenodd">
        <path d="M-8-8h79.891v65.529H-8z"/>
        <path fill="#231F20" fill-rule="nonzero" d="M11.782 49.284V46.02a1.937 1.937 0 0 0-2.046-2.068 2.014 2.014 0 0 0-1.829.925 1.91 1.91 0 0 0-1.72-.925 1.72 1.72 0 0 0-1.523.773v-.642H3.532v5.202h1.143v-2.862a1.219 1.219 0 0 1 1.273-1.383c.751 0 1.132.49 1.132 1.372v2.895h1.143v-2.884a1.224 1.224 0 0 1 1.274-1.383c.772 0 1.142.49 1.142 1.372v2.895l1.143-.022zm16.91-5.202H26.83v-1.579h-1.143v1.579h-1.034v1.034h1.056v2.394c0 1.208.468 1.927 1.807 1.927.5.001.99-.138 1.415-.403l-.327-.969a2.09 2.09 0 0 1-1.001.294c-.544 0-.751-.348-.751-.87v-2.373h1.85l-.01-1.034zm9.654-.131a1.535 1.535 0 0 0-1.372.762v-.631h-1.12v5.202h1.131v-2.917c0-.86.37-1.338 1.088-1.338.243-.004.483.04.708.13l.348-1.088a2.422 2.422 0 0 0-.805-.142l.022.022zm-14.596.544a3.891 3.891 0 0 0-2.123-.544c-1.317 0-2.177.631-2.177 1.665 0 .85.632 1.372 1.796 1.535l.544.076c.62.087.915.25.915.544 0 .403-.414.632-1.187.632a2.77 2.77 0 0 1-1.73-.544l-.544.881c.659.46 1.449.697 2.253.675 1.502 0 2.372-.708 2.372-1.698s-.685-1.393-1.817-1.556l-.545-.077c-.49-.065-.881-.163-.881-.511 0-.349.37-.61.99-.61.574.007 1.136.16 1.633.447l.5-.915zm30.318-.544a1.535 1.535 0 0 0-1.371.762v-.631h-1.121v5.202h1.131v-2.917c0-.86.37-1.338 1.089-1.338.242-.004.482.04.707.13l.349-1.088a2.422 2.422 0 0 0-.806-.142l.022.022zm-14.585 2.721a2.629 2.629 0 0 0 2.776 2.721 2.721 2.721 0 0 0 1.872-.62l-.545-.914a2.286 2.286 0 0 1-1.36.468 1.67 1.67 0 0 1 0-3.331c.492.005.97.17 1.36.468l.545-.914a2.721 2.721 0 0 0-1.872-.62 2.629 2.629 0 0 0-2.776 2.72v.022zm10.601 0v-2.59h-1.132v.63a1.976 1.976 0 0 0-1.632-.761 2.721 2.721 0 1 0 0 5.442 1.976 1.976 0 0 0 1.632-.762v.632h1.132v-2.59zm-4.212 0a1.573 1.573 0 1 1 1.578 1.665 1.562 1.562 0 0 1-1.578-1.665zm-13.66-2.721a2.721 2.721 0 0 0 .076 5.442 3.162 3.162 0 0 0 2.161-.707l-.544-.838c-.43.344-.962.536-1.513.544a1.442 1.442 0 0 1-1.557-1.274H34.7v-.435c0-1.633-1.012-2.721-2.47-2.721l-.017-.011zm0 1.012a1.29 1.29 0 0 1 1.317 1.263h-2.72a1.339 1.339 0 0 1 1.381-1.263h.022zm28.36 1.72v-4.691h-1.089v2.72a1.976 1.976 0 0 0-1.633-.761 2.721 2.721 0 0 0 0 5.442 1.976 1.976 0 0 0 1.633-.762v.632h1.088v-2.58zm1.888 1.845a.544.544 0 0 1 .375.147.506.506 0 0 1-.169.838.512.512 0 0 1-.206.043.544.544 0 0 1-.49-.315.512.512 0 0 1 .114-.566.544.544 0 0 1 .392-.147h-.016zm0 .92a.386.386 0 0 0 .283-.12.403.403 0 0 0 0-.544.403.403 0 0 0-.283-.12.408.408 0 0 0-.289.12.403.403 0 0 0 0 .544.403.403 0 0 0 .131.087.403.403 0 0 0 .174.033h-.016zm.033-.648c.05-.002.1.013.141.044.034.028.052.07.049.114a.13.13 0 0 1-.038.098.19.19 0 0 1-.114.049l.157.18h-.125l-.147-.18h-.049v.18h-.103v-.48l.229-.005zm-.12.093v.13h.12a.114.114 0 0 0 .065 0 .054.054 0 0 0 0-.049.054.054 0 0 0 0-.049.114.114 0 0 0-.065 0l-.12-.032zm-5.987-2.21a1.573 1.573 0 1 1 1.579 1.665 1.562 1.562 0 0 1-1.579-1.665zm-38.22 0v-2.601h-1.132v.63a1.976 1.976 0 0 0-1.633-.761 2.721 2.721 0 0 0 0 5.442 1.976 1.976 0 0 0 1.633-.762v.632h1.132v-2.58zm-4.212 0a1.573 1.573 0 1 1 1.578 1.665 1.562 1.562 0 0 1-1.59-1.665h.012z"/>
        <g fill-rule="nonzero">
            <path fill="#FF5F00" d="M23.374 4.435h17.143v30.808H23.374z"/>
            <path fill="#EB001B" d="M24.463 19.842a19.56 19.56 0 0 1 7.483-15.407c-8.033-6.313-19.569-5.393-26.5 2.113-6.931 7.505-6.931 19.077 0 26.583 6.931 7.506 18.467 8.425 26.5 2.113a19.56 19.56 0 0 1-7.483-15.402z"/>
            <path fill="#F79E1B" d="M63.646 19.842a19.592 19.592 0 0 1-31.7 15.402 19.592 19.592 0 0 0 0-30.809 19.592 19.592 0 0 1 31.7 15.402v.005zM61.774 31.978v-.631h.256v-.13h-.648v.13h.278v.631h.114zm1.257 0v-.762h-.196l-.228.545-.229-.545h-.174v.762h.142v-.571l.212.495h.147l.212-.495v.577l.114-.006z"/>
        </g>
    </g>
</svg>
