<svg xmlns="http://www.w3.org/2000/svg" width="80" height="80" viewBox="0 0 80 80">
    <g fill="none" fill-rule="evenodd">
        <circle cx="40" cy="40" r="40" fill="#F5F9FC"/>
        <g fill="#5E97FC" fill-rule="nonzero">
            <path d="M60.754 39.872L50.628 29.248a.835.835 0 0 0-1.187 0l-2.195 2.303a.912.912 0 0 0 0 1.246l7.337 7.697-7.337 7.699a.912.912 0 0 0 0 1.245l2.196 2.303a.82.82 0 0 0 .593.259.822.822 0 0 0 .594-.259l10.125-10.623a.913.913 0 0 0 0-1.246z"/>
            <path d="M33.753 48.194L26.417 40.5l7.337-7.694a.902.902 0 0 0 .246-.623.901.901 0 0 0-.246-.623l-2.195-2.302a.82.82 0 0 0-.594-.258.82.82 0 0 0-.593.258L20.246 39.877a.912.912 0 0 0 0 1.245l10.125 10.62a.821.821 0 0 0 .594.258.821.821 0 0 0 .593-.258l2.196-2.303a.91.91 0 0 0-.001-1.245z" opacity=".347"/>
            <path d="M45.896 24.99a.86.86 0 0 0-.512-.415l-1.822-.54a.859.859 0 0 0-1.068.584l-8.459 28.735a.865.865 0 0 0 .58 1.07l1.823.54a.855.855 0 0 0 1.068-.583l8.459-28.735a.863.863 0 0 0-.07-.656z" opacity=".621"/>
        </g>
    </g>
</svg>
