<svg id="Layer_1" data-name="Layer 1" xmlns="http://www.w3.org/2000/svg" viewBox="0 0 116 34.8"><title>PA-Artboard 17</title><path d="M33.35,0H.65A.65.65,0,0,0,0,.65v32.7A.65.65,0,0,0,.65,34H2a.66.66,0,0,0,.66-.65V2.62H31.38V30l-7.73-7.73h3.16a.65.65,0,0,0,.65-.65V7.19a.65.65,0,0,0-.65-.65H7.19a.65.65,0,0,0-.65.65V33.35a.65.65,0,0,0,.65.65H8.5a.65.65,0,0,0,.65-.65V9.15h15.7V19.62H20.27a.65.65,0,0,0-.65.65v1.31a.86.86,0,0,0,.33.65L31.07,33.34c.27.27.64.66,1,.66h1.32a.65.65,0,0,0,.65-.65V.65A.65.65,0,0,0,33.35,0ZM15.69,23.79v-8.1h1.66a2.62,2.62,0,1,0,0-2.61H13.73a.65.65,0,0,0-.65.65V24.21c0,.68.1.77.32,1L22,33.81a.65.65,0,0,0,.43.19h2.24a.49.49,0,0,0,.49-.49.77.77,0,0,0-.32-.55Z" style="fill:#fff"/><path d="M59.54,9.46a3.8,3.8,0,0,0-1.32-.56,5.14,5.14,0,0,0-3.9.63,4.85,4.85,0,0,0-1,.83V9.64a.48.48,0,0,0-.47-.49h-2.7a.48.48,0,0,0-.48.49V24.35a.48.48,0,0,0,.48.49H53a.49.49,0,0,0,.48-.49V16.66a7.37,7.37,0,0,1,.19-1.72,4.75,4.75,0,0,1,.58-1.4,2.78,2.78,0,0,1,.93-.91,3.23,3.23,0,0,1,3,.11.48.48,0,0,0,.37,0,.45.45,0,0,0,.26-.28l.9-2.41A.5.5,0,0,0,59.54,9.46ZM112,21.56h-1.93a2,2,0,0,1-1.35-.36,1.83,1.83,0,0,1-.36-1.31V12.3H112a.48.48,0,0,0,.47-.49V9.64a.48.48,0,0,0-.47-.49h-3.64v-4a.48.48,0,0,0-.48-.49H105a.48.48,0,0,0-.47.49v4h-2.48a.48.48,0,0,0-.47.49v2.17a.48.48,0,0,0,.47.49h2.48v7.83a4.54,4.54,0,0,0,1.33,3.57,5.58,5.58,0,0,0,3.78,1.14H112a.48.48,0,0,0,.47-.49v-2.3A.48.48,0,0,0,112,21.56ZM76.13,11a7.29,7.29,0,0,0-2.61-1.66,9.44,9.44,0,0,0-3.36-.57,9.15,9.15,0,0,0-3.28.57A7.29,7.29,0,0,0,64.29,11a7.77,7.77,0,0,0-1.7,2.6A9,9,0,0,0,62,17a9.6,9.6,0,0,0,.56,3.37A7.13,7.13,0,0,0,64.19,23a7.58,7.58,0,0,0,2.59,1.66,9.43,9.43,0,0,0,3.38.57,9.12,9.12,0,0,0,3.26-.57A7.48,7.48,0,0,0,76,23a7.83,7.83,0,0,0,1.7-2.59A8.9,8.9,0,0,0,78.35,17a9.69,9.69,0,0,0-.56-3.35A7.24,7.24,0,0,0,76.13,11Zm-2,8a4.49,4.49,0,0,1-.89,1.54,4.06,4.06,0,0,1-1.33,1,4.61,4.61,0,0,1-3.5,0,4.14,4.14,0,0,1-1.35-1,4.38,4.38,0,0,1-.86-1.53A6.3,6.3,0,0,1,65.88,17a6.34,6.34,0,0,1,.31-2,4.39,4.39,0,0,1,.86-1.55,4,4,0,0,1,1.35-1,4.39,4.39,0,0,1,1.76-.35,4,4,0,0,1,3.1,1.28A5.19,5.19,0,0,1,74.44,17,6,6,0,0,1,74.12,19.05Zm22.19-8A7.29,7.29,0,0,0,93.7,9.36a9.44,9.44,0,0,0-3.36-.57,9.15,9.15,0,0,0-3.28.57A7.29,7.29,0,0,0,84.47,11a7.77,7.77,0,0,0-1.7,2.6A9,9,0,0,0,82.16,17a9.6,9.6,0,0,0,.56,3.37A7.16,7.16,0,0,0,84.38,23,7.39,7.39,0,0,0,87,24.63a9.38,9.38,0,0,0,3.37.57,9.17,9.17,0,0,0,3.27-.57A7.57,7.57,0,0,0,96.22,23a8,8,0,0,0,1.69-2.59A8.9,8.9,0,0,0,98.53,17,9.69,9.69,0,0,0,98,13.64,7.24,7.24,0,0,0,96.31,11Zm-2,8a4.49,4.49,0,0,1-.89,1.54,4.06,4.06,0,0,1-1.33,1,4.61,4.61,0,0,1-3.5,0,4,4,0,0,1-1.34-1,4.25,4.25,0,0,1-.87-1.53A6.34,6.34,0,0,1,86.06,17a6.39,6.39,0,0,1,.31-2,4.39,4.39,0,0,1,.86-1.55,4,4,0,0,1,1.35-1,4.39,4.39,0,0,1,1.76-.35,4,4,0,0,1,3.1,1.28A5.19,5.19,0,0,1,94.62,17,6,6,0,0,1,94.3,19.05Z" style="fill:#fff"/></svg>