<svg enable-background="new 0 0 1400 397" viewBox="0 0 1400 397" xmlns="http://www.w3.org/2000/svg" xmlns:xlink="http://www.w3.org/1999/xlink"><radialGradient id="a" cx="701.07" cy="-813.52" gradientTransform="matrix(1 0 0 -1 0 -467.99)" gradientUnits="userSpaceOnUse" r="696.45"><stop offset="0" stop-color="#00fbb9"/><stop offset=".06542683" stop-color="#21fcc0" stop-opacity=".87"/><stop offset=".1399" stop-color="#5bfccd" stop-opacity=".64"/><stop offset=".2236" stop-color="#8dfdd9" stop-opacity=".45"/><stop offset=".4025" stop-color="#b6fee2" stop-opacity=".29"/><stop offset=".5407" stop-color="#d6fee9" stop-opacity=".16"/><stop offset=".76" stop-color="#edffee" stop-opacity=".07"/><stop offset=".89" stop-color="#fafff1" stop-opacity=".02"/><stop offset="1" stop-color="#fffff2" stop-opacity="0"/></radialGradient><path d="m5.1-2.1h1397.9v477.5h-1397.9z" fill="url(#a)"/><g fill="#00fbb9"><g opacity=".5"><path d="m212.5 9.9h-63.8c-13.5 0-24.4 10.9-24.4 24.3v.1c0 3.6.8 7.2 2.4 10.5-3.8 2.6-4.8 7.8-2.2 11.7 2.5 3.7 7.4 4.8 11.2 2.5 1.1-.7 2-1.6 2.7-2.7 3.2 1.5 6.7 2.3 10.3 2.3h63.8c13.5 0 24.4-10.9 24.4-24.3 0 0 0 0 0-.1 0-13.4-11-24.3-24.4-24.3z" opacity=".3"/><path d="m120.4 58.5c-2.3 0-4.2 1.9-4.2 4.2s1.9 4.2 4.2 4.2 4.2-1.9 4.2-4.2c.1-2.3-1.7-4.1-4-4.2-.1 0-.1 0-.2 0z" opacity=".3"/></g><path d="m120.1 358.3h-63.8c-13.5 0-24.4 10.9-24.4 24.4 0 3.6.8 7.2 2.4 10.5-3.9 2.5-5.1 7.8-2.6 11.7s7.8 5.1 11.7 2.6h.1c1-.7 1.9-1.5 2.5-2.6 3.2 1.5 6.7 2.3 10.3 2.3h63.8c13.5 0 24.4-10.9 24.4-24.4-.1-13.6-10.9-24.4-24.4-24.5z" opacity=".15"/><g opacity=".5"><path d="m321.4 66.7h-35.5c-7.5 0-13.6 6-13.6 13.5 0 2 .5 4 1.3 5.9-2.2 1.4-2.8 4.3-1.4 6.5s4.3 2.8 6.5 1.4c.6-.4 1.1-.9 1.5-1.5 1.8.9 3.7 1.3 5.7 1.3h35.5c7.5 0 13.6-6.1 13.6-13.6-.1-7.4-6.2-13.4-13.6-13.5z" opacity=".3"/><path d="m270.1 93.7c-1.3 0-2.4 1.1-2.4 2.4s1.1 2.3 2.4 2.3c1.3 0 2.3-1 2.4-2.3-.1-1.3-1.1-2.3-2.4-2.4z" opacity=".3"/></g><path d="m39.3 169.7h-35.4c-7.5 0-13.6 6.1-13.6 13.6 0 2 .5 4 1.3 5.8-1.4.9-2.2 2.4-2.2 4 0 2.6 2.1 4.7 4.7 4.7 1.6 0 3.1-.8 4-2.2 1.8.9 3.7 1.3 5.7 1.3h35.5c7.5 0 13.6-6.1 13.6-13.6 0-7.5-6.1-13.6-13.6-13.6z" opacity=".15"/><g opacity=".5"><path d="m446.7-9.3h-35.5c-7.5 0-13.6 6.1-13.6 13.6 0 2 .5 4 1.4 5.8-2.2 1.4-2.8 4.3-1.4 6.5s4.3 2.8 6.5 1.4c.6-.4 1.1-.9 1.5-1.5 1.8.9 3.7 1.3 5.7 1.3h35.5c7.5 0 13.6-6.1 13.6-13.6-.1-7.5-6.2-13.5-13.7-13.5z" opacity=".3"/><path d="m395.5 17.7c-1.3 0-2.4 1.1-2.4 2.4s1.1 2.3 2.4 2.3c1.3 0 2.3-1 2.4-2.3-.1-1.3-1.1-2.3-2.4-2.4z" opacity=".3"/></g><g opacity=".7"><path d="m419.1 143.3h-45.9c-9.7 0-17.6 7.9-17.6 17.6 0 2.6.6 5.2 1.8 7.6-2.8 1.8-3.6 5.6-1.8 8.4s5.6 3.6 8.4 1.8c.8-.5 1.4-1.1 1.9-1.9 2.3 1.1 4.8 1.7 7.4 1.7h45.9c9.7 0 17.6-7.9 17.6-17.6-.2-9.7-8-17.5-17.7-17.6z" opacity=".75"/><path d="m352.8 178.3c-1.6.3-2.7 1.9-2.3 3.5.2 1.2 1.2 2.2 2.4 2.4 1.6-.3 2.7-1.9 2.4-3.5-.2-1.2-1.2-2.2-2.4-2.4z" opacity=".75"/></g><g opacity=".5"><path d="m201.1 196h-45.9c-9.7 0-17.6 7.9-17.6 17.6 0 2.6.6 5.2 1.8 7.6-2.8 1.8-3.6 5.6-1.8 8.4s5.6 3.6 8.4 1.8c.8-.5 1.4-1.1 1.9-1.9 2.3 1.1 4.8 1.7 7.4 1.7h45.9c9.7 0 17.6-7.9 17.6-17.6-.1-9.7-8-17.5-17.7-17.6z" opacity=".3"/><path d="m134.8 231c-1.7 0-3 1.3-3 3s1.3 3 3 3 3-1.3 3-3c0-1.6-1.3-3-2.9-3z" opacity=".3"/></g><g opacity=".5"><path d="m703.1 42.7h-45.9c-9.7 0-17.6 7.9-17.6 17.6 0 2.6.6 5.2 1.8 7.6-2.8 1.8-3.6 5.6-1.8 8.4s5.6 3.6 8.4 1.8c.8-.5 1.4-1.1 1.9-1.9 2.3 1.1 4.8 1.7 7.4 1.7h45.9c9.7 0 17.6-7.9 17.6-17.6-.1-9.7-8-17.5-17.7-17.6z" opacity=".3"/><path d="m636.8 77.7c-1.7 0-3 1.3-3 3s1.3 3 3 3 3-1.3 3-3c0-1.6-1.3-3-3-3z" opacity=".3"/></g><g opacity=".5"><path d="m745.8 147.3h-45.9c-9.7 0-17.5 7.8-17.6 17.5 0 2.7.6 5.3 1.7 7.7-2.8 1.8-3.6 5.6-1.8 8.4s5.5 3.6 8.3 1.9c.8-.5 1.4-1.1 1.9-1.9 2.3 1.1 4.8 1.7 7.4 1.7h45.9c9.7 0 17.6-7.9 17.6-17.6 0-9.7-7.8-17.6-17.5-17.7z" opacity=".3"/><path d="m679.5 182.3c-1.7 0-3 1.3-3 3s1.3 3 3 3 3-1.3 3-3c0-1.6-1.4-3-3-3z" opacity=".3"/></g><g opacity=".5"><path d="m983.1 72.7h-79.2c-16.7 0-30.3 13.6-30.3 30.3 0 4.5 1 9 3 13-4.9 3.1-6.4 9.6-3.3 14.5s9.6 6.4 14.5 3.3l.1-.1c1.3-.9 2.4-2 3.3-3.3 4 1.9 8.4 2.9 12.8 2.9h79.2c16.7 0 30.3-13.6 30.3-30.3-.1-16.7-13.7-30.3-30.4-30.3z"/><path d="m868.8 133c-2.9 0-5.2 2.3-5.2 5.2s2.3 5.2 5.2 5.2 5.2-2.3 5.2-5.2-2.3-5.2-5.2-5.2z"/></g><g opacity=".19"><path d="m1444.7 251.7h-79.2c-16.7 0-30.3 13.6-30.3 30.3 0 4.5 1 9 3 13-4.9 3.2-6.3 9.7-3.1 14.5 3.1 4.8 9.5 6.2 14.4 3.2 1.3-.9 2.4-2 3.3-3.3 4 1.9 8.4 2.9 12.8 2.9h79.2c16.7 0 30.3-13.6 30.3-30.3-.1-16.7-13.7-30.3-30.4-30.3z"/><path d="m1330.4 312c-2.9 0-5.2 2.3-5.2 5.2s2.3 5.2 5.2 5.2 5.2-2.3 5.2-5.2c0-2.9-2.3-5.2-5.2-5.2z"/></g><g opacity=".4"><path d="m470.2 252h-53.1c-11.2 0-20.3 9-20.3 20.2 0 3.1.7 6.1 2 8.8-3.2 2.1-4.1 6.5-2 9.7s6.5 4.1 9.7 2c.8-.5 1.5-1.2 2-2 2.7 1.3 5.6 1.9 8.6 1.9h53.1c11.2 0 20.3-9.1 20.3-20.3 0-11.2-9.1-20.3-20.3-20.3z" opacity=".7"/><path d="m393.5 292.4c-1.9 0-3.5 1.6-3.5 3.5s1.6 3.5 3.5 3.5 3.5-1.6 3.5-3.5c0-1.9-1.4-3.5-3.3-3.5-.1 0-.1 0-.2 0z"/></g><g opacity=".5"><path d="m1106.4 10.7h-27.8c-5.8 0-10.6 4.7-10.6 10.5v.1c0 1.6.4 3.1 1 4.6-1.7 1.1-2.3 3.3-1.2 5.1s3.3 2.3 5.1 1.2l.1-.1c.5-.3.9-.7 1.1-1.2 1.4.7 2.9 1 4.5 1h27.8c5.8 0 10.6-4.8 10.6-10.6 0-5.8-4.8-10.6-10.6-10.6z" opacity=".3"/><path d="m1066.3 31.8c-1 0-1.8.8-1.8 1.8s.8 1.8 1.8 1.8 1.8-.8 1.8-1.8c0-1-.8-1.8-1.8-1.8z" opacity=".3"/></g><g opacity=".5"><path d="m1036.4 226.7h-27.8c-5.8 0-10.6 4.7-10.6 10.5v.1c0 1.6.4 3.1 1 4.6-1.7 1.1-2.3 3.3-1.2 5.1s3.3 2.3 5.1 1.2l.1-.1c.5-.3.9-.7 1.1-1.2 1.4.7 2.9 1 4.5 1h27.8c5.9 0 10.6-4.7 10.6-10.6 0-5.8-4.8-10.6-10.6-10.6z" opacity=".3"/><path d="m996.3 247.8c-1 0-1.8.8-1.8 1.8s.8 1.8 1.8 1.8 1.8-.8 1.8-1.8c0-1-.8-1.8-1.8-1.8z" opacity=".3"/></g><g opacity=".5"><path d="m1331.4 94.7h-27.8c-5.8 0-10.6 4.7-10.6 10.5v.1c0 1.6.4 3.1 1 4.6-1.7 1.1-2.3 3.3-1.2 5.1 1.1 1.7 3.3 2.3 5.1 1.2l.1-.1c.5-.3.9-.7 1.1-1.2 1.4.7 2.9 1 4.5 1h27.8c5.8 0 10.6-4.8 10.6-10.6 0-5.8-4.8-10.6-10.6-10.6z" opacity=".3"/><path d="m1291.3 115.8c-1 0-1.8.8-1.8 1.8s.8 1.8 1.8 1.8 1.8-.8 1.8-1.8c0-1-.8-1.8-1.8-1.8z" opacity=".3"/></g><g opacity=".5"><path d="m854.6 263h-14c-3 0-5.4 2.4-5.4 5.4 0 .8.2 1.6.5 2.3-.9.5-1.2 1.7-.6 2.6.3.5.9.9 1.5.9.7 0 1.3-.3 1.6-.9.7.3 1.5.5 2.3.5h14c3 0 5.4-2.4 5.4-5.4 0-3-2.3-5.4-5.3-5.4z" opacity=".3"/><path d="m834.4 273.7c-.5 0-.9.4-.9.9s.4.9.9.9.9-.4.9-.9c0-.5-.4-.9-.9-.9z" opacity=".3"/></g><g opacity=".5"><path d="m558.6 134h-14c-3 0-5.4 2.4-5.4 5.4 0 .8.2 1.6.5 2.3-.9.5-1.2 1.7-.6 2.6.3.5.9.9 1.5.9.7 0 1.3-.3 1.6-.9.7.3 1.5.5 2.3.5h14c3 0 5.4-2.4 5.4-5.4 0-3-2.3-5.4-5.3-5.4z" opacity=".3"/><path d="m538.4 144.7c-.5 0-.9.4-.9.9s.4.9.9.9.9-.4.9-.9c0-.5-.4-.9-.9-.9z" opacity=".3"/></g><g opacity=".5"><path d="m225.6 324h-14c-3 0-5.4 2.4-5.4 5.4 0 .8.2 1.6.5 2.3-.9.5-1.2 1.7-.6 2.6.3.5.9.9 1.5.9.7 0 1.3-.3 1.6-.9.7.3 1.5.5 2.3.5h14c3 0 5.4-2.4 5.4-5.4 0-3-2.3-5.4-5.3-5.4z" opacity=".3"/><path d="m205.4 334.7c-.5 0-.9.4-.9.9s.4.9.9.9.9-.4.9-.9c0-.5-.4-.9-.9-.9z" opacity=".3"/></g><g opacity=".5"><path d="m1151.6 311h-14c-3 0-5.4 2.4-5.4 5.4 0 .8.2 1.6.5 2.3-.9.5-1.2 1.7-.6 2.6.3.5.9.9 1.5.9.7 0 1.3-.3 1.6-.9.7.3 1.5.5 2.3.5h14c3 0 5.4-2.4 5.4-5.4 0-3-2.3-5.4-5.3-5.4z" opacity=".3"/><path d="m1131.4 321.7c-.5 0-.9.4-.9.9s.4.9.9.9.9-.4.9-.9c0-.5-.4-.9-.9-.9z" opacity=".3"/></g><g opacity=".5"><path d="m1216 58h-14c-3 0-5.4 2.4-5.4 5.4 0 .8.2 1.6.5 2.3-.9.6-1.1 1.7-.5 2.6s1.7 1.1 2.6.5c.2-.1.5-.4.6-.6.7.3 1.5.5 2.3.5h14c3 0 5.4-2.4 5.4-5.4-.1-3-2.5-5.3-5.5-5.3z" opacity=".3"/><path d="m1195.8 68.7c-.5 0-.9.4-.9.9s.4.9.9.9.9-.4.9-.9-.4-.9-.9-.9z" opacity=".3"/></g><g opacity=".5"><path d="m1404 185h-14c-3 0-5.4 2.4-5.4 5.4 0 .8.2 1.6.5 2.3-.9.6-1.1 1.7-.5 2.6s1.7 1.1 2.6.5c.2-.1.5-.4.6-.6.7.3 1.5.5 2.3.5h14c3 0 5.4-2.4 5.4-5.4-.1-3-2.5-5.3-5.5-5.3z" opacity=".3"/><path d="m1383.8 195.7c-.5 0-.9.4-.9.9s.4.9.9.9.9-.4.9-.9-.4-.9-.9-.9z" opacity=".3"/></g><g opacity=".5"><path d="m1196.2 157h-47.5c-10 0-18.2 8.2-18.2 18.2 0 2.7.6 5.4 1.8 7.8-2.9 2-3.6 5.9-1.6 8.8 1.9 2.7 5.6 3.5 8.4 1.8.8-.5 1.5-1.2 2-2 2.4 1.1 5 1.7 7.7 1.7h47.5c10-.1 18.1-8.2 18.2-18.2-.2-10-8.3-18-18.3-18.1z" opacity=".3"/><path d="m1127.6 193.2c-1.7 0-3.2 1.4-3.2 3.1s1.4 3.2 3.1 3.2 3.2-1.4 3.2-3.1c.1-1.7-1.3-3.1-3.1-3.2z" opacity=".3"/></g></g></svg>
