<svg xmlns="http://www.w3.org/2000/svg" width="75" height="80" viewBox="0 0 75 80">
    <g fill="none" fill-rule="evenodd">
        <ellipse cx="37.5" cy="40" fill="#1EC881" opacity=".05" rx="37.5" ry="40"/>
        <g fill-rule="nonzero">
            <path fill="#1EC881" d="M42.375 19h-15.5c-2.131 0-3.856 1.794-3.856 3.986L23 54.87c0 2.193 1.724 3.986 3.856 3.986h23.269c2.131 0 3.875-1.793 3.875-3.986V30.957L42.375 19zm7.365 30H28v-3h21.74v3zm0 5H28v-3h21.74v3zm-9.303-21.05V21.99l10.657 10.96H40.437z"/>
            <path fill="#C2F1E0" d="M29.538 41.945c.475.346.959.623 1.28.794a.385.385 0 0 0 .363 0 11.13 11.13 0 0 0 1.281-.794c.575-.418 1.538-1.234 1.538-2.013v-4.481a.384.384 0 0 0-.385-.384h-5.23a.384.384 0 0 0-.385.384v4.481c0 .779.963 1.595 1.538 2.013z"/>
        </g>
    </g>
</svg>
