<svg xmlns="http://www.w3.org/2000/svg" width="81" height="80" viewBox="0 0 81 80">
    <g fill="none" fill-rule="evenodd" transform="translate(.5)">
        <circle cx="40" cy="40" r="40" fill="#1EC881" opacity=".05"/>
        <path fill="#C2F1E0" fill-rule="nonzero" d="M16.5 26v18.697h38.574V26H16.5zm10.901 13.355h-6.708v-2.671H27.4v2.67zm0-5.342h-6.708v-2.671H27.4v2.67zm8.386 7.568c-3.242 0-5.87-2.79-5.87-6.233 0-3.442 2.628-6.232 5.87-6.232s5.87 2.79 5.87 6.232-2.628 6.233-5.87 6.233zm15.095-2.226h-6.709v-2.671h6.709v2.67zm0-5.342h-6.709v-2.671h6.709v2.67z"/>
        <path fill="#1EC881" fill-rule="nonzero" d="M25.926 36.264V54.96H64.5V36.264z"/>
        <path fill="#FFF" d="M45.213 51.844c-3.242 0-5.87-2.79-5.87-6.232s2.628-6.232 5.87-6.232 5.87 2.79 5.87 6.232-2.628 6.232-5.87 6.232zM36.827 49.618h-6.709v-2.67h6.709zM36.827 44.276h-6.709v-2.67h6.709zM60.307 49.618H53.6v-2.67h6.708zM60.307 44.276H53.6v-2.67h6.708z"/>
    </g>
</svg>
